<svg width="99" height="24" viewBox="0 0 99 24" fill="none" xmlns="http://www.w3.org/2000/svg">
<path d="M11.21 23L6.56 16.1V23H0.68V0.8H6.56V12.77L11.21 6.17H18.26L11.63 14.63L18.38 23H11.21ZM22.9538 23.24C21.9138 23.24 21.0738 22.96 20.4338 22.4C19.8138 21.82 19.5038 21.09 19.5038 20.21C19.5038 19.33 19.8138 18.6 20.4338 18.02C21.0738 17.44 21.9138 17.15 22.9538 17.15C23.9738 17.15 24.7938 17.44 25.4138 18.02C26.0538 18.6 26.3738 19.33 26.3738 20.21C26.3738 21.07 26.0538 21.79 25.4138 22.37C24.7938 22.95 23.9738 23.24 22.9538 23.24Z" fill="#017AFF"/>
<path d="M30.3223 6.775C29.9723 6.775 29.6723 6.65 29.4223 6.4C29.1723 6.15 29.0473 5.84167 29.0473 5.475C29.0473 5.10833 29.1723 4.80833 29.4223 4.575C29.6723 4.325 29.9723 4.2 30.3223 4.2C30.6723 4.2 30.9723 4.325 31.2223 4.575C31.4723 4.80833 31.5973 5.10833 31.5973 5.475C31.5973 5.84167 31.4723 6.15 31.2223 6.4C30.9723 6.65 30.6723 6.775 30.3223 6.775ZM31.1973 9.35V23H29.4473V9.35H31.1973ZM41.5602 9.1C43.1935 9.1 44.5268 9.60833 45.5602 10.625C46.5935 11.625 47.1102 13.0833 47.1102 15V23H45.3852V15.2C45.3852 13.7167 45.0102 12.5833 44.2602 11.8C43.5268 11.0167 42.5185 10.625 41.2352 10.625C39.9185 10.625 38.8685 11.0417 38.0852 11.875C37.3018 12.7083 36.9102 13.9333 36.9102 15.55V23H35.1602V9.35H36.9102V11.675C37.3435 10.8417 37.9685 10.2083 38.7852 9.775C39.6018 9.325 40.5268 9.1 41.5602 9.1ZM55.8305 21.3L60.4305 9.35H62.2805L56.8055 23H54.8305L49.3555 9.35H51.2305L55.8305 21.3ZM77.0023 15.475C77.0023 16.075 76.9857 16.5333 76.9523 16.85H65.6273C65.6773 17.8833 65.9273 18.7667 66.3773 19.5C66.8273 20.2333 67.419 20.7917 68.1523 21.175C68.8857 21.5417 69.6857 21.725 70.5523 21.725C71.6857 21.725 72.6357 21.45 73.4023 20.9C74.1857 20.35 74.7023 19.6083 74.9523 18.675H76.8023C76.469 20.0083 75.7523 21.1 74.6523 21.95C73.569 22.7833 72.2023 23.2 70.5523 23.2C69.269 23.2 68.119 22.9167 67.1023 22.35C66.0857 21.7667 65.2857 20.95 64.7023 19.9C64.1357 18.8333 63.8523 17.5917 63.8523 16.175C63.8523 14.7583 64.1357 13.5167 64.7023 12.45C65.269 11.3833 66.0607 10.5667 67.0773 10C68.094 9.43333 69.2523 9.15 70.5523 9.15C71.8523 9.15 72.9857 9.43333 73.9523 10C74.9357 10.5667 75.6857 11.3333 76.2023 12.3C76.7357 13.25 77.0023 14.3083 77.0023 15.475ZM75.2273 15.425C75.244 14.4083 75.0357 13.5417 74.6023 12.825C74.1857 12.1083 73.6107 11.5667 72.8773 11.2C72.144 10.8333 71.344 10.65 70.4773 10.65C69.1773 10.65 68.069 11.0667 67.1523 11.9C66.2357 12.7333 65.7273 13.9083 65.6273 15.425H75.2273ZM84.9041 23.2C83.3374 23.2 82.0541 22.8417 81.0541 22.125C80.0708 21.3917 79.5208 20.4 79.4041 19.15H81.2041C81.2874 19.9167 81.6458 20.5417 82.2791 21.025C82.9291 21.4917 83.7958 21.725 84.8791 21.725C85.8291 21.725 86.5708 21.5 87.1041 21.05C87.6541 20.6 87.9291 20.0417 87.9291 19.375C87.9291 18.9083 87.7791 18.525 87.4791 18.225C87.1791 17.925 86.7958 17.6917 86.3291 17.525C85.8791 17.3417 85.2624 17.15 84.4791 16.95C83.4624 16.6833 82.6374 16.4167 82.0041 16.15C81.3708 15.8833 80.8291 15.4917 80.3791 14.975C79.9458 14.4417 79.7291 13.7333 79.7291 12.85C79.7291 12.1833 79.9291 11.5667 80.3291 11C80.7291 10.4333 81.2958 9.98333 82.0291 9.65C82.7624 9.31667 83.5958 9.15 84.5291 9.15C85.9958 9.15 87.1791 9.525 88.0791 10.275C88.9791 11.0083 89.4624 12.025 89.5291 13.325H87.7791C87.7291 12.525 87.4124 11.8833 86.8291 11.4C86.2624 10.9 85.4791 10.65 84.4791 10.65C83.5958 10.65 82.8791 10.8583 82.3291 11.275C81.7791 11.6917 81.5041 12.2083 81.5041 12.825C81.5041 13.3583 81.6624 13.8 81.9791 14.15C82.3124 14.4833 82.7208 14.75 83.2041 14.95C83.6874 15.1333 84.3374 15.3417 85.1541 15.575C86.1374 15.8417 86.9208 16.1 87.5041 16.35C88.0874 16.6 88.5874 16.9667 89.0041 17.45C89.4208 17.9333 89.6374 18.575 89.6541 19.375C89.6541 20.1083 89.4541 20.7667 89.0541 21.35C88.6541 21.9167 88.0958 22.3667 87.3791 22.7C86.6624 23.0333 85.8374 23.2 84.9041 23.2ZM95.2232 10.825V19.3C95.2232 20.1333 95.3816 20.7083 95.6982 21.025C96.0149 21.3417 96.5732 21.5 97.3732 21.5H98.9732V23H97.0982C95.8649 23 94.9482 22.7167 94.3482 22.15C93.7482 21.5667 93.4482 20.6167 93.4482 19.3V10.825H91.5482V9.35H93.4482V5.925H95.2232V9.35H98.9732V10.825H95.2232Z" fill="#3D3D3D"/>
</svg>
